<?xml version="1.0" encoding="UTF-8" standalone="no"?>
<svg
   version="1.1"
   width="127.24076"
   height="175.46245"
   viewBox="0 0 127.24076 175.46245"
   id="svg2"
   xmlns="http://www.w3.org/2000/svg"
   xmlns:svg="http://www.w3.org/2000/svg">
  <defs
     id="defs2" />
  <g
     transform="translate(-439.76496,-401.37185)"
     id="g2">
    <path
       style="fill:#ffffff"
       d="m 521.96051,401.37266 c -0.3991,0.0312 -2.24827,1.19791 -4.29328,2.71884 -5.92156,4.40395 -11.71304,7.05114 -24.67855,11.28029 -18.45533,6.01992 -24.69921,9.89613 -28.52865,17.71065 -1.95257,3.98451 -2.93792,10.0629 -2.02002,12.45934 0.49087,1.28158 0.72792,1.08559 3.16322,-2.61849 7.1655,-10.89873 20.83679,-17.42157 36.51672,-17.42157 3.17371,0 5.77095,0.25206 5.77095,0.56026 0,0.30825 -2.95871,1.25896 -6.5749,2.11199 -13.26892,3.12995 -19.50675,6.19271 -26.21357,12.87385 -5.95884,5.936 -9.65677,13.49713 -8.0693,16.49816 0.99224,1.87583 3.62963,5.26736 4.07944,5.24534 0.21237,-0.0104 1.32863,-1.26871 2.47992,-2.79648 2.63153,-3.49197 7.86726,-7.2272 15.33824,-10.94223 11.46387,-5.70053 20.61511,-12.11202 25.96033,-18.18728 5.7872,-6.57765 8.70928,-15.58117 7.93551,-24.45159 -0.22991,-2.63553 -0.59173,-4.89966 -0.80514,-5.03152 -0.0133,-0.008 -0.0343,-0.0116 -0.0609,-0.01 z m 7.38003,17.75963 c -0.12777,-0.002 -0.22079,0.0237 -0.27475,0.0777 -0.20916,0.20917 -0.37987,0.82046 -0.37987,1.35942 0,0.53895 -1.09502,3.15954 -2.43333,5.82351 -1.33831,2.66402 -2.37041,4.87202 -2.29357,4.90609 9.02767,4.00243 13.00825,6.947 15.96061,11.80709 1.22276,2.0129 2.38644,4.58718 2.58624,5.71959 l 0.36434,2.05824 -1.19457,-1.85875 c -2.83074,-4.40567 -10.0098,-9.39949 -17.32719,-12.05318 l -4.03047,-1.46095 -3.94446,3.7366 c -2.16963,2.05553 -5.37903,4.66642 -7.13157,5.80202 -1.75253,1.13559 -3.18591,2.26663 -3.18591,2.51336 0,0.24667 1.72018,0.63526 3.82262,0.86248 9.89501,1.06966 22.04805,5.39113 29.81639,10.60298 1.51375,1.01559 3.02751,1.77907 3.3639,1.69748 0.33639,-0.0816 1.62995,-1.89246 2.87532,-4.0245 6.69195,-11.45671 3.97708,-23.88024 -7.02644,-32.15177 -3.84925,-2.8935 -8.33217,-5.40092 -9.56729,-5.41736 z m 2.02001,41.84329 c -4.9e-4,1.1e-4 -0.003,0.001 -0.004,0.001 l -10e-4,10e-4 -10e-4,0.001 c -0.12303,0.0798 -0.22219,1.80673 -0.22219,3.90743 0,5.80848 -1.89583,11.24598 -5.20353,14.92492 -3.03296,3.37338 -7.33455,6.32316 -10.85145,7.44095 -3.53236,1.12275 -2.84343,2.04414 1.30447,1.74408 2.40799,-0.1742 4.91561,-0.90808 7.57952,-2.21951 7.41227,-3.6491 11.4853,-10.08472 11.94926,-18.88132 l 0.264,-5.00644 -2.28999,-0.95684 c -1.25949,-0.52624 -2.39461,-0.95685 -2.52172,-0.95685 h -10e-4 z m -45.6205,0.002 c -0.24088,0 -1.44137,0.47612 -2.66747,1.06077 l -2.22907,1.06316 0.26161,5.20593 c 0.32014,6.36382 1.714,9.76747 5.78171,14.1162 3.40855,3.64402 7.78391,6.05755 12.12843,6.69076 3.65009,0.53199 4.2885,0.44698 4.2885,-0.571 0,-0.42373 -1.00645,-1.11585 -2.23623,-1.5386 -5.93685,-2.04103 -11.13696,-6.60412 -13.51533,-11.85847 -1.00246,-2.21467 -1.30167,-4.1261 -1.33314,-8.51128 -0.0223,-3.11033 -0.23814,-5.65619 -0.47901,-5.65747 z m 59.22662,10.42902 c -0.44516,0.004 -0.68509,0.27679 -1.04047,0.72032 -0.91404,1.14085 -0.78573,1.38841 2.32224,4.49635 7.79981,7.79985 8.91644,18.34401 2.82635,26.67707 -5.34671,7.31587 -14.47418,11.58674 -43.01875,20.12726 -18.23124,5.45478 -28.30553,10.40327 -35.11668,17.24954 -5.77275,5.80249 -7.61105,12.86245 -5.06855,19.47025 2.15186,5.59252 10.82362,11.75092 21.22506,15.07543 7.84569,2.50758 8.38217,2.26441 4.36973,-1.9782 -5.75108,-6.08089 -5.41392,-11.15804 1.13006,-17.04169 3.78503,-3.40304 10.80699,-6.868 26.00334,-12.83085 24.71214,-9.69665 35.84233,-16.80903 42.76788,-27.3293 3.25091,-4.93832 4.9608,-9.51638 5.49023,-14.70034 1.14831,-11.24344 -4.35902,-20.36235 -16.48263,-27.29107 -3.35533,-1.91762 -4.66587,-2.65231 -5.40781,-2.64477 z m -75.591,9.58878 c -2.20406,0.0295 -7.64281,1.72439 -12.24909,3.94805 -6.49656,3.13619 -12.95146,9.28791 -15.60104,14.86997 -1.54789,3.26102 -1.74338,4.35086 -1.7596,9.78589 -0.0164,5.50377 0.15821,6.48364 1.74407,9.78589 2.32533,4.84206 7.5935,9.88427 13.62045,13.03631 5.10876,2.67179 6.76318,2.56412 4.09139,-0.26639 -3.0596,-3.24139 -6.40771,-9.00985 -7.70257,-13.27283 -1.04136,-3.42849 -1.22441,-5.25384 -0.97118,-9.69511 0.26851,-4.70928 0.62438,-6.10272 2.54801,-9.99494 2.79008,-5.64535 7.11251,-10.42648 12.79262,-14.14964 2.41297,-1.58165 4.48368,-2.9464 4.60147,-3.03301 0.11778,-0.0865 0.0478,-0.42634 -0.15529,-0.75497 -0.11403,-0.1845 -0.45061,-0.26602 -0.95924,-0.25922 z"
       id="path2" />
  </g>
</svg>
